<?xml version="1.0" encoding="UTF-8" standalone="no"?>
<!-- Created with Inkscape (http://www.inkscape.org/) -->

<svg
   width="1000mm"
   height="100mm"
   viewBox="0 0 1000 100"
   version="1.1"
   id="svg5"
   inkscape:version="1.2.2 (732a01da63, 2022-12-09)"
   sodipodi:docname="gridbg.svg"
   xmlns:inkscape="http://www.inkscape.org/namespaces/inkscape"
   xmlns:sodipodi="http://sodipodi.sourceforge.net/DTD/sodipodi-0.dtd"
   xmlns="http://www.w3.org/2000/svg"
   xmlns:svg="http://www.w3.org/2000/svg">
  <sodipodi:namedview
     id="namedview7"
     pagecolor="#ffffff"
     bordercolor="#000000"
     borderopacity="0.25"
     inkscape:showpageshadow="2"
     inkscape:pageopacity="0.0"
     inkscape:pagecheckerboard="0"
     inkscape:deskcolor="#d1d1d1"
     inkscape:document-units="mm"
     showgrid="false"
     inkscape:zoom="0.76880612"
     inkscape:cx="1305.2706"
     inkscape:cy="236.73069"
     inkscape:window-width="1920"
     inkscape:window-height="1017"
     inkscape:window-x="-8"
     inkscape:window-y="-8"
     inkscape:window-maximized="1"
     inkscape:current-layer="layer1" />
  <defs
     id="defs2" />
  <g
     inkscape:label="Katman 1"
     inkscape:groupmode="layer"
     id="layer1">
    <path
       d="M 0,0 0,99.999999 M 2.6458333,0 l 0,99.999999 M 5.2916666,0 l 0,99.999999 M 7.9374999,0 l 0,99.999999 M 10.583333,0 l 0,99.999999 M 13.229167,0 l 0,99.999999 M 15.875,0 l 0,99.999999 M 18.520833,0 l 0,99.999999 M 21.166667,0 l 0,99.999999 M 23.8125,0 l 0,99.999999 M 26.458333,0 l 0,99.999999 M 29.104166,0 l 0,99.999999 M 31.75,0 l 0,99.999999 M 34.395833,0 l 0,99.999999 M 37.041666,0 l 0,99.999999 M 39.6875,0 l 0,99.999999 M 42.333333,0 l 0,99.999999 M 44.979166,0 l 0,99.999999 M 47.625,0 l 0,99.999999 M 50.270833,0 l 0,99.999999 M 52.916666,0 l 0,99.999999 M 55.5625,0 l 0,99.999999 M 58.208333,0 l 0,99.999999 M 60.854166,0 l 0,99.999999 M 63.5,0 l 0,99.999999 M 66.145833,0 l 0,99.999999 M 68.791666,0 l 0,99.999999 M 71.437499,0 l 0,99.999999 M 74.083333,0 l 0,99.999999 M 76.729166,0 l 0,99.999999 M 79.374999,0 l 0,99.999999 M 82.020833,0 l 0,99.999999 M 84.666666,0 l 0,99.999999 M 87.312499,0 l 0,99.999999 M 89.958333,0 l 0,99.999999 M 92.604166,0 l 0,99.999999 M 95.249999,0 l 0,99.999999 M 97.895833,0 l 0,99.999999 M 100.54167,0 l 0,99.999999 M 103.1875,0 l 0,99.999999 M 105.83333,0 l 0,99.999999 M 108.47917,0 l 0,99.999999 M 111.125,0 l 0,99.999999 M 113.77083,0 l 0,99.999999 M 116.41667,0 l 0,99.999999 M 119.0625,0 l 0,99.999999 M 121.70833,0 l 0,99.999999 M 124.35417,0 l 0,99.999999 M 127,0 127,99.999999 M 129.64583,0 l 0,99.999999 M 132.29167,0 l 0,99.999999 M 134.9375,0 l 0,99.999999 M 137.58333,0 l 0,99.999999 M 140.22917,0 l 0,99.999999 M 142.875,0 l 0,99.999999 M 145.52083,0 l 0,99.999999 M 148.16667,0 l 0,99.999999 M 150.8125,0 l 0,99.999999 M 153.45833,0 l 0,99.999999 M 156.10417,0 l 0,99.999999 M 158.75,0 l 0,99.999999 M 161.39583,0 l 0,99.999999 M 164.04167,0 l 0,99.999999 M 166.6875,0 l 0,99.999999 M 169.33333,0 l 0,99.999999 M 171.97917,0 l 0,99.999999 M 174.625,0 l 0,99.999999 M 177.27083,0 l 0,99.999999 M 179.91667,0 l 0,99.999999 M 182.5625,0 l 0,99.999999 M 185.20833,0 l 0,99.999999 M 187.85417,0 l 0,99.999999 M 190.5,0 l 0,99.999999 M 193.14583,0 l 0,99.999999 M 195.79167,0 l 0,99.999999 M 198.4375,0 l 0,99.999999 M 201.08333,0 l 0,99.999999 M 203.72917,0 l 0,99.999999 M 206.375,0 l 0,99.999999 M 209.02083,0 l 0,99.999999 M 211.66667,0 l 0,99.999999 M 214.3125,0 l 0,99.999999 M 216.95833,0 l 0,99.999999 M 219.60416,0 l 0,99.999999 M 222.25,0 l 0,99.999999 M 224.89583,0 l 0,99.999999 M 227.54166,0 l 0,99.999999 M 230.1875,0 l 0,99.999999 M 232.83333,0 l 0,99.999999 M 235.47916,0 l 0,99.999999 M 238.125,0 l 0,99.999999 M 240.77083,0 l 0,99.999999 M 243.41666,0 l 0,99.999999 M 246.0625,0 l 0,99.999999 M 248.70833,0 l 0,99.999999 M 251.35416,0 l 0,99.999999 M 254,0 254,99.999999 M 256.64583,0 l 0,99.999999 M 259.29166,0 l 0,99.999999 M 261.9375,0 l 0,99.999999 M 264.58333,0 l 0,99.999999 M 267.22916,0 l 0,99.999999 M 269.875,0 l 0,99.999999 M 272.52083,0 l 0,99.999999 M 275.16666,0 l 0,99.999999 M 277.8125,0 l 0,99.999999 M 280.45833,0 l 0,99.999999 M 283.10416,0 l 0,99.999999 M 285.75,0 l 0,99.999999 M 288.39583,0 l 0,99.999999 M 291.04166,0 l 0,99.999999 M 293.6875,0 l 0,99.999999 M 296.33333,0 l 0,99.999999 M 298.97916,0 l 0,99.999999 M 301.625,0 l 0,99.999999 M 304.27083,0 l 0,99.999999 M 306.91666,0 l 0,99.999999 M 309.5625,0 l 0,99.999999 M 312.20833,0 l 0,99.999999 M 314.85416,0 l 0,99.999999 M 317.5,0 l 0,99.999999 M 320.14583,0 l 0,99.999999 M 322.79166,0 l 0,99.999999 M 325.4375,0 l 0,99.999999 M 328.08333,0 l 0,99.999999 M 330.72916,0 l 0,99.999999 M 333.375,0 l 0,99.999999 M 336.02083,0 l 0,99.999999 M 338.66666,0 l 0,99.999999 M 341.3125,0 l 0,99.999999 M 343.95833,0 l 0,99.999999 M 346.60416,0 l 0,99.999999 M 349.25,0 l 0,99.999999 M 351.89583,0 l 0,99.999999 M 354.54166,0 l 0,99.999999 M 357.1875,0 l 0,99.999999 M 359.83333,0 l 0,99.999999 M 362.47916,0 l 0,99.999999 M 365.125,0 l 0,99.999999 M 367.77083,0 l 0,99.999999 M 370.41666,0 l 0,99.999999 M 373.0625,0 l 0,99.999999 M 375.70833,0 l 0,99.999999 M 378.35416,0 l 0,99.999999 M 381,0 381,99.999999 M 383.64583,0 l 0,99.999999 M 386.29166,0 l 0,99.999999 M 388.9375,0 l 0,99.999999 M 391.58333,0 l 0,99.999999 M 394.22916,0 l 0,99.999999 M 396.875,0 l 0,99.999999 M 399.52083,0 l 0,99.999999 M 402.16666,0 l 0,99.999999 M 404.8125,0 l 0,99.999999 M 407.45833,0 l 0,99.999999 M 410.10416,0 l 0,99.999999 M 412.75,0 l 0,99.999999 M 415.39583,0 l 0,99.999999 M 418.04166,0 l 0,99.999999 M 420.6875,0 l 0,99.999999 M 423.33333,0 l 0,99.999999 M 425.97916,0 l 0,99.999999 M 428.625,0 l 0,99.999999 M 431.27083,0 l 0,99.999999 M 433.91666,0 l 0,99.999999 M 436.5625,0 l 0,99.999999 M 439.20833,0 l 0,99.999999 M 441.85416,0 l 0,99.999999 M 444.5,0 l 0,99.999999 M 447.14583,0 l 0,99.999999 M 449.79166,0 l 0,99.999999 M 452.4375,0 l 0,99.999999 M 455.08333,0 l 0,99.999999 M 457.72916,0 l 0,99.999999 M 460.375,0 l 0,99.999999 M 463.02083,0 l 0,99.999999 M 465.66666,0 l 0,99.999999 M 468.3125,0 l 0,99.999999 M 470.95833,0 l 0,99.999999 M 473.60416,0 l 0,99.999999 M 476.25,0 l 0,99.999999 M 478.89583,0 l 0,99.999999 M 481.54166,0 l 0,99.999999 M 484.1875,0 l 0,99.999999 M 486.83333,0 l 0,99.999999 M 489.47916,0 l 0,99.999999 M 492.125,0 l 0,99.999999 M 494.77083,0 l 0,99.999999 M 497.41666,0 l 0,99.999999 M 500.0625,0 l 0,99.999999 M 502.70833,0 l 0,99.999999 M 505.35416,0 l 0,99.999999 M 508,0 508,99.999999 M 510.64583,0 l 0,99.999999 M 513.29166,0 l 0,99.999999 M 515.9375,0 l 0,99.999999 M 518.58333,0 l 0,99.999999 M 521.22916,0 l 0,99.999999 M 523.875,0 l 0,99.999999 M 526.52083,0 l 0,99.999999 M 529.16666,0 l 0,99.999999 M 531.8125,0 l 0,99.999999 M 534.45833,0 l 0,99.999999 M 537.10416,0 l 0,99.999999 M 539.75,0 l 0,99.999999 M 542.39583,0 l 0,99.999999 M 545.04166,0 l 0,99.999999 M 547.6875,0 l 0,99.999999 M 550.33333,0 l 0,99.999999 M 552.97916,0 l 0,99.999999 M 555.625,0 l 0,99.999999 M 558.27083,0 l 0,99.999999 M 560.91666,0 l 0,99.999999 M 563.5625,0 l 0,99.999999 M 566.20833,0 l 0,99.999999 M 568.85416,0 l 0,99.999999 M 571.5,0 l 0,99.999999 M 574.14583,0 l 0,99.999999 M 576.79166,0 l 0,99.999999 M 579.4375,0 l 0,99.999999 M 582.08333,0 l 0,99.999999 M 584.72916,0 l 0,99.999999 M 587.375,0 l 0,99.999999 M 590.02083,0 l 0,99.999999 M 592.66666,0 l 0,99.999999 M 595.3125,0 l 0,99.999999 M 597.95833,0 l 0,99.999999 M 600.60416,0 l 0,99.999999 M 603.25,0 l 0,99.999999 M 605.89583,0 l 0,99.999999 M 608.54166,0 l 0,99.999999 M 611.1875,0 l 0,99.999999 M 613.83333,0 l 0,99.999999 M 616.47916,0 l 0,99.999999 M 619.125,0 l 0,99.999999 M 621.77083,0 l 0,99.999999 M 624.41666,0 l 0,99.999999 M 627.0625,0 l 0,99.999999 M 629.70833,0 l 0,99.999999 M 632.35416,0 l 0,99.999999 M 635,0 635,99.999999 M 637.64583,0 l 0,99.999999 M 640.29166,0 l 0,99.999999 M 642.9375,0 l 0,99.999999 M 645.58333,0 l 0,99.999999 M 648.22916,0 l 0,99.999999 M 650.875,0 l 0,99.999999 M 653.52083,0 l 0,99.999999 M 656.16666,0 l 0,99.999999 M 658.81249,0 l 0,99.999999 M 661.45833,0 l 0,99.999999 M 664.10416,0 l 0,99.999999 M 666.74999,0 l 0,99.999999 M 669.39583,0 l 0,99.999999 M 672.04166,0 l 0,99.999999 M 674.68749,0 l 0,99.999999 M 677.33333,0 l 0,99.999999 M 679.97916,0 l 0,99.999999 M 682.62499,0 l 0,99.999999 M 685.27083,0 l 0,99.999999 M 687.91666,0 l 0,99.999999 M 690.56249,0 l 0,99.999999 M 693.20833,0 l 0,99.999999 M 695.85416,0 l 0,99.999999 M 698.49999,0 l 0,99.999999 M 701.14583,0 l 0,99.999999 M 703.79166,0 l 0,99.999999 M 706.43749,0 l 0,99.999999 M 709.08333,0 l 0,99.999999 M 711.72916,0 l 0,99.999999 M 714.37499,0 l 0,99.999999 M 717.02083,0 l 0,99.999999 M 719.66666,0 l 0,99.999999 M 722.31249,0 l 0,99.999999 M 724.95833,0 l 0,99.999999 M 727.60416,0 l 0,99.999999 M 730.24999,0 l 0,99.999999 M 732.89583,0 l 0,99.999999 M 735.54166,0 l 0,99.999999 M 738.18749,0 l 0,99.999999 M 740.83333,0 l 0,99.999999 M 743.47916,0 l 0,99.999999 M 746.12499,0 l 0,99.999999 M 748.77083,0 l 0,99.999999 M 751.41666,0 l 0,99.999999 M 754.06249,0 l 0,99.999999 M 756.70833,0 l 0,99.999999 M 759.35416,0 l 0,99.999999 M 761.99999,0 l 0,99.999999 M 764.64583,0 l 0,99.999999 M 767.29166,0 l 0,99.999999 M 769.93749,0 l 0,99.999999 M 772.58333,0 l 0,99.999999 M 775.22916,0 l 0,99.999999 M 777.87499,0 l 0,99.999999 M 780.52083,0 l 0,99.999999 M 783.16666,0 l 0,99.999999 M 785.81249,0 l 0,99.999999 M 788.45833,0 l 0,99.999999 M 791.10416,0 l 0,99.999999 M 793.74999,0 l 0,99.999999 M 796.39583,0 l 0,99.999999 M 799.04166,0 l 0,99.999999 M 801.68749,0 l 0,99.999999 M 804.33333,0 l 0,99.999999 M 806.97916,0 l 0,99.999999 M 809.62499,0 l 0,99.999999 M 812.27083,0 l 0,99.999999 M 814.91666,0 l 0,99.999999 M 817.56249,0 l 0,99.999999 M 820.20833,0 l 0,99.999999 M 822.85416,0 l 0,99.999999 M 825.49999,0 l 0,99.999999 M 828.14583,0 l 0,99.999999 M 830.79166,0 l 0,99.999999 M 833.43749,0 l 0,99.999999 M 836.08333,0 l 0,99.999999 M 838.72916,0 l 0,99.999999 M 841.37499,0 l 0,99.999999 M 844.02083,0 l 0,99.999999 M 846.66666,0 l 0,99.999999 M 849.31249,0 l 0,99.999999 M 851.95833,0 l 0,99.999999 M 854.60416,0 l 0,99.999999 M 857.24999,0 l 0,99.999999 M 859.89583,0 l 0,99.999999 M 862.54166,0 l 0,99.999999 M 865.18749,0 l 0,99.999999 M 867.83333,0 l 0,99.999999 M 870.47916,0 l 0,99.999999 M 873.12499,0 l 0,99.999999 M 875.77083,0 l 0,99.999999 M 878.41666,0 l 0,99.999999 M 881.06249,0 l 0,99.999999 M 883.70833,0 l 0,99.999999 M 886.35416,0 l 0,99.999999 M 888.99999,0 l 0,99.999999 M 891.64583,0 l 0,99.999999 M 894.29166,0 l 0,99.999999 M 896.93749,0 l 0,99.999999 M 899.58333,0 l 0,99.999999 M 902.22916,0 l 0,99.999999 M 904.87499,0 l 0,99.999999 M 907.52083,0 l 0,99.999999 M 910.16666,0 l 0,99.999999 M 912.81249,0 l 0,99.999999 M 915.45833,0 l 0,99.999999 M 918.10416,0 l 0,99.999999 M 920.74999,0 l 0,99.999999 M 923.39583,0 l 0,99.999999 M 926.04166,0 l 0,99.999999 M 928.68749,0 l 0,99.999999 M 931.33333,0 l 0,99.999999 M 933.97916,0 l 0,99.999999 M 936.62499,0 l 0,99.999999 M 939.27083,0 l 0,99.999999 M 941.91666,0 l 0,99.999999 M 944.56249,0 l 0,99.999999 M 947.20833,0 l 0,99.999999 M 949.85416,0 l 0,99.999999 M 952.49999,0 l 0,99.999999 M 955.14583,0 l 0,99.999999 M 957.79166,0 l 0,99.999999 M 960.43749,0 l 0,99.999999 M 963.08333,0 l 0,99.999999 M 965.72916,0 l 0,99.999999 M 968.37499,0 l 0,99.999999 M 971.02083,0 l 0,99.999999 M 973.66666,0 l 0,99.999999 M 976.31249,0 l 0,99.999999 M 978.95833,0 l 0,99.999999 M 981.60416,0 l 0,99.999999 M 984.24999,0 l 0,99.999999 M 986.89583,0 l 0,99.999999 M 989.54166,0 l 0,99.999999 M 992.18749,0 l 0,99.999999 M 994.83333,0 l 0,99.999999 M 997.47916,0 l 0,99.999999 M 0,0 999.99999,0 M 0,2.6458333 l 999.99999,0 M 0,5.2916666 l 999.99999,0 M 0,7.9374999 l 999.99999,0 M 0,10.583333 l 999.99999,0 M 0,13.229167 l 999.99999,0 M 0,15.875 l 999.99999,0 M 0,18.520833 l 999.99999,0 M 0,21.166667 l 999.99999,0 M 0,23.8125 l 999.99999,0 M 0,26.458333 l 999.99999,0 M 0,29.104166 l 999.99999,0 M 0,31.75 l 999.99999,0 M 0,34.395833 l 999.99999,0 M 0,37.041666 l 999.99999,0 M 0,39.6875 l 999.99999,0 M 0,42.333333 l 999.99999,0 M 0,44.979166 l 999.99999,0 M 0,47.625 l 999.99999,0 M 0,50.270833 l 999.99999,0 M 0,52.916666 l 999.99999,0 M 0,55.5625 l 999.99999,0 M 0,58.208333 l 999.99999,0 M 0,60.854166 l 999.99999,0 M 0,63.5 l 999.99999,0 M 0,66.145833 l 999.99999,0 M 0,68.791666 l 999.99999,0 M 0,71.437499 l 999.99999,0 M 0,74.083333 l 999.99999,0 M 0,76.729166 l 999.99999,0 M 0,79.374999 l 999.99999,0 M 0,82.020833 l 999.99999,0 M 0,84.666666 l 999.99999,0 M 0,87.312499 l 999.99999,0 M 0,89.958333 l 999.99999,0 M 0,92.604166 l 999.99999,0 M 0,95.249999 l 999.99999,0 M 0,97.895833 l 999.99999,0"
       style="fill:none;stroke:#ff6407;stroke-width:0.264583px;fill-opacity:1;stroke-opacity:1"
       id="path292" />
  </g>
</svg>
