<?xml version="1.0" encoding="UTF-8" standalone="no"?>
<!-- Created with Inkscape (http://www.inkscape.org/) -->

<svg
   width="114.64108mm"
   height="116.98121mm"
   viewBox="0 0 114.64108 116.98121"
   version="1.1"
   id="svg5"
   xml:space="preserve"
   inkscape:version="1.2.2 (732a01da63, 2022-12-09)"
   sodipodi:docname="strength.svg"
   inkscape:export-filename="synthdivision.png"
   inkscape:export-xdpi="96"
   inkscape:export-ydpi="96"
   xmlns:inkscape="http://www.inkscape.org/namespaces/inkscape"
   xmlns:sodipodi="http://sodipodi.sourceforge.net/DTD/sodipodi-0.dtd"
   xmlns="http://www.w3.org/2000/svg"
   xmlns:svg="http://www.w3.org/2000/svg"><sodipodi:namedview
     id="namedview7"
     pagecolor="#ffffff"
     bordercolor="#000000"
     borderopacity="0.25"
     inkscape:showpageshadow="2"
     inkscape:pageopacity="0.0"
     inkscape:pagecheckerboard="0"
     inkscape:deskcolor="#d1d1d1"
     inkscape:document-units="mm"
     showgrid="false"
     inkscape:zoom="1"
     inkscape:cx="172"
     inkscape:cy="101"
     inkscape:window-width="1920"
     inkscape:window-height="1017"
     inkscape:window-x="-8"
     inkscape:window-y="-8"
     inkscape:window-maximized="1"
     inkscape:current-layer="layer1" /><defs
     id="defs2" /><g
     inkscape:label="Katman 1"
     inkscape:groupmode="layer"
     id="layer1"
     transform="translate(-40.80163,-24.570881)"><path
       style="fill:#ff640f;stroke-width:0.264583;fill-opacity:1"
       d="m 79.866783,124.30408 -14.46147,-0.15572 -6.81484,-7.64522 c -6.47805,-7.2674 -6.8009,-7.67928 -6.53295,-8.33438 0.15503,-0.37903 7.88583,-15.452903 17.17954,-33.497486 l 16.89767,-32.808334 11.90197,-0.0671 11.901977,-0.0671 17.11224,33.272308 c 9.41174,18.299769 17.1508,33.404792 17.19792,33.566712 0.0471,0.16192 -3.00015,3.76356 -6.7717,8.00365 l -6.85738,7.70924 -12.45721,5.3e-4 c -6.85146,2.6e-4 -15.01705,0.0407 -18.14576,0.0896 -3.128687,0.0489 -12.196197,0.0188 -20.150007,-0.0668 z m 14.32918,-10.73905 v -6.74688 h -14.56103 -14.56104 l 0.0751,-2.84427 0.0751,-2.84427 14.48594,-0.0684 14.48594,-0.0684 v -0.79149 c 0,-0.761678 -0.0448,-0.791494 -1.19062,-0.791494 h -1.19064 V 88.024429 c 0,-12.746529 0.11806,-12.054858 -1.91877,-11.241656 -3.16851,1.265031 -7.76778,4.905182 -10.20257,8.074959 -1.73239,2.255348 -3.62802,7.752165 -4.07031,11.802801 l -0.30019,2.749282 h -3.41677 -3.41677 l 0.1375,-0.727604 c 0.0756,-0.400182 0.21635,-1.680104 0.31273,-2.844271 0.27499,-3.321722 1.27812,-6.778884 2.98885,-10.300702 1.83208,-3.771652 3.18806,-5.637065 6.19837,-8.527087 2.3487,-2.254843 4.0776,-3.476075 7.01589,-4.955776 1.77984,-0.89631 6.15261,-2.356411 8.0611,-2.691662 l 0.99219,-0.174289 V 57.435246 45.682068 l -2.94672,0.07481 -2.94672,0.07481 -15.98128,31.057684 c -8.7897,17.081727 -15.94688,31.151178 -15.90484,31.265428 0.042,0.11426 2.45768,2.89225 5.3681,6.1733 l 5.29167,5.96556 13.55989,0.009 13.5599,0.009 z m 3.90203,-3.35782 c -0.0453,-1.93675 -0.0824,-0.42573 -0.0826,3.35782 -1.5e-4,3.78354 0.0369,5.36814 0.0823,3.52134 0.0454,-1.8468 0.0455,-4.94242 2.6e-4,-6.87916 z m 36.182957,4.18064 c 2.89943,-3.25823 5.31651,-6.05855 5.37131,-6.22293 0.0826,-0.24774 -30.44294,-60.006957 -31.60383,-61.870209 -0.34808,-0.558679 -0.54963,-0.595313 -3.27522,-0.595313 h -2.90432 v 11.773959 c 0,11.18957 0.0238,11.773958 0.47933,11.773958 0.83098,0 4.60471,1.066612 6.53213,1.84625 1.01864,0.41204 3.00804,1.385585 4.42089,2.163437 2.35719,1.297768 2.85849,1.727554 6.08541,5.217308 3.14334,3.399353 3.63236,4.059346 4.60702,6.217708 2.05282,4.545886 3.06236,8.304697 3.40215,12.667277 l 0.15972,2.05052 h -3.39313 -3.39312 l -0.30762,-2.894375 c -0.34346,-3.231694 -1.39911,-6.744943 -2.86476,-9.534085 -1.18604,-2.257021 -4.62182,-6.178095 -6.67615,-7.619127 -1.91262,-1.341626 -5.16141,-2.906173 -6.27375,-3.021301 l -0.79375,-0.08215 -0.0689,11.575521 -0.0689,11.57552 h -0.92326 c -0.84946,0 -0.92326,0.06345 -0.92326,0.793752 v 0.79375 h 4.58694 c 8.16772,0 23.68972,0.34478 23.99422,0.53297 0.16647,0.10289 0.36289,1.30093 0.44847,2.73546 l 0.15228,2.5524 h -14.59096 -14.59095 v 6.74688 6.74687 h 13.57019 13.57019 z M 98.098523,59.544119 c -0.039,-7.687357 -0.0709,-1.47545 -0.0709,13.804238 -1e-5,15.279688 0.0319,21.569344 0.0709,13.977011 0.039,-7.592329 0.039,-20.093892 2e-5,-27.781249 z"
       id="path4023" /></g></svg>
